<svg xmlns="http://www.w3.org/2000/svg" width="133.333" height="133.333" version="1.0" viewBox="0 0 576 1280"><path d="M263.2 355.1c-25.6 1.6-42.2 4.9-66.4 13-19.6 6.6-26.8 9.8-26.8 12 0 1 .4 1.9.8 1.9s5.1-1.8 10.4-3.9c30.2-12.4 56.9-17.7 100.8-20.1 21.5-1.2 24.9-1 42 2 5.8 1 12.5 2.1 15 2.5 8.8 1.2 27.2 5.7 37.8 9.2 15 4.9 24.1 8.8 42.7 18 13.1 6.5 17.6 9.3 31.7 19.5 13.5 9.7 14.7 10.3 16.2 8.8s-2.3-4.7-18.4-15.5c-38.6-25.8-72-38.4-123.5-46.6-12.9-2-38.1-2.4-62.3-.8z"/><path d="M265 384.1c-55.9 5.2-106.8 27.5-149.4 65.5-26 23.1-49.8 56.3-63.6 88.9-14.4 33.8-20.4 63.8-20.4 101.5.1 34.9 4.6 60.2 16.4 91.5 28.7 76.1 94.9 135.9 173.1 156.4 26.1 6.8 44.1 9 70.9 8.6 28.3-.4 50.8-4.2 77.8-13.1 20-6.5 50.8-22 66.2-33.3 49.9-36.5 84-85 99.5-141.7 17.7-64.4 9.7-133.7-21.8-190.9-23.5-42.6-56.6-76.5-98.5-100.7-44.3-25.5-98.8-37.4-150.2-32.7zm60 12.8c73.6 11.8 135.5 53.4 174 117.1 43.9 72.5 46.3 165.9 6.4 240.7-12.1 22.6-25.3 40.3-44.3 59.4-38.2 38.1-84.5 61.2-139.6 69.5-16.6 2.5-50.3 2.5-67 0-53-7.9-98.6-30-136.2-65.9-39.2-37.5-63.2-83.1-72.9-138.3-2.4-13.2-2.7-17.6-2.7-38.9-.1-21.7.2-25.5 2.7-39.7 8-46.7 26.4-86.4 55.7-120.3 43.6-50.5 99.4-79 168.4-85.9 10.1-1 43.5.4 55.5 2.3z"/><path d="M238.8 484.7c-2.1.3-2.8 1-2.8 2.6.1 3.5 1.9 26.7 2.6 32.4l.6 5.3h4c3.6 0 3.9-.2 3.3-2.3-.6-2.1-.5-2.1.9-.4 1 1.3 2.5 1.7 5.2 1.5 3.1-.2 3.9-.8 4.5-3 .9-3.6-.6-22.7-2.2-26.1-1.5-3.4-6.1-3.7-8.7-.7-1.7 2-1.7 1.9-2.2-3.6-.5-6-.8-6.3-5.2-5.7zm9.6 18.5c1.2 10.3 1.3 12.6.5 13.9-1.6 2.6-2.8-.5-3.5-9.4-.6-7.5-.5-8.7.9-8.7 1.1 0 1.7 1.3 2.1 4.2zM355.6 487.2c-.2.7-1.7 9.7-3.3 20l-2.9 18.7 3.4.6c1.9.3 3.7.4 4 .1.3-.4 1.4-5.6 2.4-11.8 1.7-10.6 2.9-14 4.5-12.5.4.4-.1 6.2-1 12.9s-1.6 12.3-1.4 12.4c.1.1 1.8.4 3.8.8l3.6.6 1.7-10.7c.9-6 1.9-12.5 2.2-14.5.8-5.2-.9-7.8-4.9-7.8-1.8 0-3.9.6-4.6 1.2-1 1.1-1.1.3-.5-4.1.5-4 .4-5.5-.7-6.2-2.1-1.3-5.9-1.1-6.3.3zM271.5 491.1c-3.3 2-3.5 2.9-3.5 15.2 0 11.2.1 11.9 2.5 14.2 1.9 2 3.4 2.5 7.2 2.5 5.6-.1 8-1.6 9.3-5.8 1.4-5 .3-7.2-3.6-7.2-1.9 0-3.5.4-3.5 1-.1.5-.3 1.4-.4 2-.1.5-.3 1.7-.4 2.5 0 .8-.8 1.5-1.6 1.5-1.1 0-1.5-1.2-1.5-4.4 0-4.1.2-4.4 3.1-5 1.7-.3 4.2-.6 5.5-.6 2.3 0 2.4-.3 2.4-6.3 0-8.3-1.2-9.9-8.1-10.4-3.1-.2-6.3.2-7.4.8zm7.5 7.9c0 2.3-.4 3-2 3-1.4 0-2-.7-2-2.3 0-2.7.7-3.7 2.7-3.7.8 0 1.3 1.2 1.3 3zM310 490.7c-.8.3-2.1 1.2-2.7 2.1-1.2 1.4-1.3 1.4-1.3-.1 0-1.3-.9-1.7-4-1.7h-4v32h8v-9.9c0-11.6.4-13.1 3.6-13.1 2.2 0 2.4-.4 2.4-5 0-2.8-.1-5-.2-4.9-.2 0-1 .3-1.8.6zM325.4 492.8c-1.9 1.2-3.4 4.9-3.4 8.3 0 2.7 1 4.2 5.1 8 3.7 3.5 5 5.3 4.7 7-.5 3.5-2.8 3.6-2.8.1 0-2.2-.6-3.1-2.2-3.6-5.1-1.3-5.8-.9-5.8 3.7 0 5.5 1.9 7.4 8.5 8.2 7.1 1 9.6-1.2 10.3-8.8.5-6.1.9-5.3-7.2-12-2.2-1.8-2.7-2.8-2.1-4.6.5-1.8.9-2 2.1-1 .8.7 1.3 1.8 1 2.5-.5 1.4 1.5 2.4 5 2.4 2.9 0 4.1-3.7 2.3-7.2-1.7-3.3-2.8-3.8-8.9-3.8-3 0-6 .4-6.6.8zM221.7 496c-1.1 1.6-1.6 1.7-2 .7-.3-.9-1.7-1.2-4.1-.9-4.3.5-4.3-.1-1.3 18.2l2.2 13.5h3.5c3.5 0 3.5 0 3.4-4.5-.1-2.5-.5-7.7-.9-11.7l-.8-7.2 2.7-.7c2.2-.5 2.7-1.1 2.2-2.8-.3-1.1-.6-3.1-.6-4.4 0-2.8-2.4-2.9-4.3-.2zM153.3 500.8c-3.5.8-6.3 2-6.3 2.6 0 1.3 9.8 37.8 10.3 38.2.2.2 4-.8 8.5-2.2 5.6-1.7 8.5-3.1 9.3-4.6 2.2-4.2-1.4-16.5-5.1-17.5-2.2-.6-2.6-1.8-1-2.8 1.3-.8 1.3-6.4-.1-10.4-1.9-5.4-4.8-6-15.6-3.3zm8.5 8.4c1.1 4 .5 5.8-1.7 5.8-1.1 0-2-1.4-2.7-4.5-1-4.3-.9-4.5 1.3-4.5 1.7 0 2.5.8 3.1 3.2zm3.8 15.4c1.8 4.3 1.5 8.8-.6 9.2-1.1.2-1.9-1.5-3-6.3-1.5-6.2-1.5-6.5.3-6.5 1.1 0 2.3 1.3 3.3 3.6zM188 500.7c-3.4 1.2-5 3.7-5 7.5 0 3 .4 3.8 1.8 3.8 3.1 0 6.2-1.2 6.1-2.4-.3-2.5.2-3.6 1.6-3.6 3.1 0 1.5 4.5-3.1 8.8-4.4 4.2-4.5 4.4-3.8 9 1.2 8.6 2.3 9.9 7.4 9.2.8-.1 2.2-.8 3.1-1.6 1-.9 1.9-1 2.5-.4.6.6 2.5.7 4.2.4 3.9-.8 3.9-.9 1.1-15.1-2.1-10.7-3.2-14.2-5.3-15.5-1.3-.9-8.4-.9-10.6-.1zm8.6 24c-.9 2.2-2.4 1.4-3.1-1.6-.4-1.7-.1-4 .6-5.3 1.2-2.2 1.3-2.2 2.1 1.7.5 2.1.6 4.5.4 5.2zM386.6 502.2c-2.1 1.9-3 4.3-4.8 12.8-1.2 5.9-1.9 11.6-1.5 13.1.8 3.1 4.5 4.9 10.6 5.2 5.9.2 7.2-1.8 10.1-14.7 3.1-14.3 2.3-16.1-8.2-18-2.9-.5-4.1-.2-6.2 1.6zm8.4 6.4c0 1.8-3.9 17.4-4.7 18.7-.2.4-1 .3-1.7-.3-1.1-.8-.9-2.6.6-9.3 1-4.5 2.1-8.8 2.3-9.5.6-1.8 3.5-1.5 3.5.4z"/><path d="M106.1 509.1c-2.1 6.2-1.4 14 2.1 21 2.7 5.6 8.9 12.2 49.3 52.9 44.5 44.9 52.5 53.6 56.6 61.7 3.3 6.4 2.2 13.9-3.1 21.8-9.3 13.9-4.8 29.5 10.9 37.5 5.3 2.7 10.6 3.4 19.4 2.6 9.7-1 11-1.8 7.2-4.8-14.8-11.3-18.6-21.2-11.1-28.6 2.4-2.5 2.5-2.5 5.2-.7 3.1 2 21.4 20.5 24.4 24.5l1.8 2.6-10 13.4c-14.9 19.8-32.7 42-33.7 42-.5 0-2-2.4-3.4-5.3-5.1-11.2-13-16.6-22.5-15.3-8 1-18.2 6.8-25 14-12.8 13.8-16.3 30-9.6 44.7 3.2 6.8 6.5 10.4 12.9 13.7 4.1 2.1 6.4 2.6 12.5 2.6 10.2 0 16-2.7 23.7-10.7 5.5-5.8 9.4-11.1 26.6-35.7 3.6-5.2 9-12 11.9-15 11.2-11.7 33-28 37.4-28 3.2 0 8.4 3.3 21.9 14.1 16.5 13.1 20 17.1 41.5 48.7 8 11.8 17.4 21.6 23.2 24.2 11 4.8 22.8 3.3 31.2-4.1l4.7-4.2 8.2 8c8.8 8.6 14 11.3 17.7 9.3 3.1-1.6 2.5-3-3.6-9-10.2-9.9-16.4-21.5-16.4-30.6 0-14.3-11.7-31.4-26.2-38.3-15.9-7.5-27.7-3.5-33.9 11.4-1.2 3-2.5 5.5-2.9 5.5-1 0-7.2-6.9-13.2-14.5-20.4-26.2-31-40.5-30.6-41.4.6-1.7 18.8-21 23.3-24.6 5.1-4.3 7.2-3.8 10 2.1 3.4 7.2.3 13.9-10.3 22.6-7.5 6.1-7.2 6.5 5 7.4 10.2.8 17-.9 23.9-6 10.8-7.9 13.2-23.7 5.3-34.2-3.6-4.7-5.6-11.3-4.9-16.1 1.2-8.1 7.5-15.4 55.5-63.8 53.7-54.1 55.5-56.4 55.4-69 0-7.6-1.5-11.5-4.2-11.5-.9 0-11.9 10.5-24.3 23.3-19.3 19.8-41.6 41.6-72.4 70.7-3.8 3.6-19.6 18.3-35 32.5-15.4 14.3-32.6 30.4-38.2 35.8l-10.3 9.9-4.3-3.9c-2.4-2.1-15.1-13.9-28.3-26.3-13.1-12.4-33.3-31.3-44.9-42-39-36.2-78.7-75.3-94.8-93.3-6.9-7.8-9.8-8.6-11.6-3.6zm99.5 239.8c1.7 1 4.2 3.6 5.5 5.7 3.5 5.7 3.4 16.7-.2 24.4-5.4 11.5-12.4 16.6-21.5 15.7-10.9-1.1-14.9-5.7-14.8-16.8.2-8.5 3.5-16.1 10.1-22.7 8.1-8 14.8-10 20.9-6.3zm180.9 0c5.1 2.3 13.1 10.8 15.7 16.9 2.9 6.6 3.5 16.7 1.1 21.2-2.6 5-7.5 7.5-15 7.5-8.7 0-13.4-3.4-18.6-13.5-3.7-7.2-3.9-7.9-3.5-15.6.2-6.6.8-8.7 2.8-11.7 4.4-6.5 10.3-8.1 17.5-4.8z"/><path d="M414.1 510.2c-.6 2.4-2.9 10.8-5 18.8s-3.6 14.8-3.2 15.1c.3.4 2 1 3.7 1.3 3.1.7 3.2.6 4.4-4.2l1.1-5 2.4 2.4c5.5 5.5 8.4 2.6 12.5-12.9 2.9-11.1 3-12 1.5-14.3-1.7-2.6-6.2-3.3-8.3-1.2-.9.9-1.2.7-1.2-1 0-1.2-.6-2.2-1.2-2.2-.7 0-2.2-.3-3.4-.6-1.8-.5-2.3.1-3.3 3.8zm9.9 5.9c0 3.5-4.5 16.9-5.7 16.9-.7 0-1.3-.7-1.3-1.6 0-1.5 2.5-12.1 3.5-15.2.5-1.5 3.5-1.6 3.5-.1zM476.3 537.8c-13.4 12-105 104.5-106.6 107.7-2.3 4.8-2.8 8-1.3 10 1.1 1.5 1.6 1.6 3.7.5 1.3-.7 11.2-9.7 21.9-20 22.1-21.2 52.8-49.5 67.2-61.8 19.1-16.4 25.8-25.8 25.8-36.6 0-7.7-1.8-7.6-10.7.2zM92.4 535.5c-.3 2-.1 5.6.7 8.2 2.5 8.9 8.2 15.6 29.3 34.1 22 19.3 45.4 41 67.1 62.2 17.5 17.1 22.5 20 22.5 13.2-.1-7.2-3.2-10.8-47.3-55C116 549.3 97.8 532 95 532c-1.4 0-2.1 1-2.6 3.5zM90.4 557.4c-1.4 3.6.3 11.3 3.4 15.8 1.7 2.5 12.5 13.6 23.9 24.6 18.9 18.1 28.5 26.9 47.3 43.4 3.6 3.2 11.4 10.5 17.5 16.2 12 11.6 17 15 18.4 12.7 1.4-2.2-.5-7-5.6-14.6-6.8-10-38.3-41.2-69.8-69.1-14.8-13.1-28.7-25.4-30.7-27.3-3.2-2.8-3.9-3.1-4.4-1.7zM481 562.2c-3.6 3.4-13.9 12.6-23 20.6-54.5 47.9-80 75.2-80 85.7 0 1.8.5 2.5 1.9 2.5 2.4 0 5.1-2.2 23.6-19.5 8.3-7.7 23.4-21.5 33.7-30.7 30.6-27.5 47.3-44.4 50.3-50.8 2.7-6.1 3.1-9.8 1.3-12.2-1.2-1.5-2-1-7.8 4.4zM256.2 579.6c-2.7 1.9-2.8 3-.2 4.4 1.4.7 2.5.7 3.8-.1 2.1-1.3 5.2-.6 5.2 1.1 0 .6-1.9 2.8-4.2 4.8-13 11.3-13.1 12.4-1 12 8.7-.3 8.7-.3 9-3.1.3-2.5.1-2.7-3.5-2.7h-3.8l3.7-3.3c6-5.3 7.2-9.3 3.8-12.7-2.5-2.5-9.5-2.7-12.8-.4zM276.5 581.3c-7.3 7.3-5.2 20.7 3.3 20.7 6.4 0 12.2-7.1 12.2-14.8 0-9.2-8.9-12.5-15.5-5.9zm8.4 3.1c1.7 2 .4 8.3-2.2 10.9-2 2-2 2-3.4.1-1.6-2.2-1.1-6.6 1.2-10.1 1.8-2.7 2.8-2.9 4.4-.9zM296.2 579.6c-2.8 1.9-2.8 3-.1 4.5 1.5.8 2.4.8 3.2 0 1.3-1.3 4.4-1.4 5.1-.2 1.1 1.7-.6 3.9-6.3 8.5-3.7 2.8-6 5.5-6.3 7.1l-.5 2.6 8.6-.3c8.6-.3 8.6-.3 8.9-3.1.3-2.5.1-2.7-3.4-2.7h-3.7l4.7-4.3c5.2-4.9 5.9-8.4 2.6-11.7-2.5-2.5-9.5-2.7-12.8-.4zM318.1 579.6c-2.8 2-6 8.8-6.1 12.7 0 3.5 2.4 8.2 4.5 9.1 7.7 2.9 15.5-4.3 15.5-14.2 0-5.6-3.1-9.2-7.9-9.2-2 0-4.7.7-6 1.6zm7.4 5.4c.8 2.5-1.1 9.4-3.1 11.1-2.3 1.9-4.7-1.5-3.8-5.6 1.3-6.4 5.5-9.8 6.9-5.5zM224.1 587.6c-2.3 1.7-2.8 5.3-.9 7.2 2.2 2.2 6.7 1.4 8-1.4 2.1-4.6-2.9-8.7-7.1-5.8zM349.2 588.2c-.7.7-1.2 2.1-1.2 3.3 0 2.9 1.9 4.5 5.2 4.5 3.6 0 5.6-3.6 3.9-6.9-1.3-2.3-5.9-2.9-7.9-.9zM98.8 590.7c-1.3 5.9 5 16.1 17.7 28.9 11.4 11.4 41.8 39.4 42.3 38.9.3-.2 1-3 1.6-6.2l1.3-5.8-24.6-23.7c-23.3-22.5-35.8-33.8-37.3-33.8-.3 0-.8.8-1 1.7zM468 598.4c-5.8 5.1-19.4 18.1-30.2 28.7L418 646.5l1 5.9c.5 3.2 1.1 6.1 1.3 6.3.3.2 4-2.9 8.3-6.9 38.6-35.8 45.8-43.2 50.3-52.2 2.2-4.5 2.5-9.6.6-10.3-.6-.2-5.7 3.9-11.5 9.1zM115 632c0 7.7 9.6 17.5 31.2 32.3 8.6 5.9 16.1 10.7 16.7 10.7.6 0 1.1-.7 1.1-1.6 0-3-3.9-8-11.2-14.5-4-3.5-7.5-6.6-7.8-6.9-1.6-1.6-13.5-11.5-19.9-16.3-7.8-6.1-10.1-6.9-10.1-3.7zM452.4 637.1c-12.3 9.9-29.3 24.6-32.6 28.3-3.1 3.5-5.4 8.3-4.4 9.4.9.9 4.6-1.3 21-12.6 7.5-5.1 16-11.8 19-14.8 8-8.1 11.9-17.4 7.3-17.4-.7 0-5.4 3.2-10.3 7.1zM168 655.5c-.8 1-1.1 3.2-.7 6.4 2.7 23 27.3 50.1 45.3 50.1 3 0 5.4-.3 5.4-.8 0-1.3-3.2-5.5-9-11.8-5.9-6.3-10-13.7-10-17.8 0-1.8-2.8-5-10.7-12.3-10.5-9.5-17.4-15.3-18.5-15.3-.3 0-1.1.7-1.8 1.5zM405.4 656.9c-2.1 1.5-8.5 7.2-14 12.4-8.7 8.2-10.3 10.3-11.3 14.2-1.5 6-4.8 11.2-12.2 19.1-7.9 8.5-7.8 9.8.6 9.2 6.9-.6 12.3-3.2 20.3-9.6 5.2-4.3 15-17.1 18.6-24.4 4.8-9.8 6.4-23.8 2.8-23.8-.5 0-2.7 1.3-4.8 2.9zM133.5 665.2c1.1 3.7 6.5 8.7 14 13.1 9 5.3 24.4 12.1 25.3 11.2 2.2-2.2-33.2-26.5-38.5-26.5-1 0-1.2.7-.8 2.2zM432.9 669.2c-14.1 8.3-27.2 18.8-25.6 20.4.9.9 24.4-10.7 30.1-14.9 6.7-4.9 11-11.7 7.3-11.7-.7 0-6 2.8-11.8 6.2zM148 684.4c0 3.9 13.9 12.4 25.9 16 14.9 4.4 10.5-.3-9.4-10-8.2-4.1-15.3-7.4-15.7-7.4-.5 0-.8.7-.8 1.4zM416 689.7c-7.4 3.5-14.9 7.8-16.7 9.4-3.3 2.9-3.3 2.9-.9 2.9 5.6 0 23.8-7.8 29.5-12.5 2.7-2.4 4.3-6.6 2.4-6.4-.5 0-6.9 3-14.3 6.6zM165 702c0 4.8 20.3 12.8 28.3 11.2 4.7-1 .4-3.4-16-9.2-8.8-3.1-12.3-3.7-12.3-2zM402 704.1c-9.9 3.3-18 6.9-18 8 0 2.2 12.1 1.2 19.4-1.7 4.5-1.7 10.2-5.9 11-8 .8-2.1-2.7-1.7-12.4 1.7zM258.5 752.2c-.9 4-7.5 36.6-7.5 37.2 0 .3 2.4.6 5.4.6 5.9 0 5.9.1 7.2-7.3.5-3.2 1-3.7 3.4-3.7s3.3.9 6 5.6l3.2 5.6 17.6-.4c15.9-.3 18.2-.6 22.4-2.7 8.4-4 12.8-11.1 12.8-20.6 0-5.7-2.9-10.6-8.1-13.5-3.9-2.2-5.8-2.5-16.6-2.8l-12.2-.4-.7 3.7c-.5 3.1-.8 3.5-1.6 2-2.1-3.6-8.7-5.5-20-5.5-10.3 0-10.8.1-11.3 2.2zm20.3 8c1.8 1.8 1.4 6.3-.8 8.3-1.1 1-4.2 2-7.1 2.3-5.1.5-5.2.4-4.6-1.9.3-1.3.9-4.1 1.2-6.2.7-3.7.8-3.7 5.4-3.7 2.6 0 5.2.5 5.9 1.2zm36.4 1.8c2.7 2.8 3 3.5 2.4 7.3-1.2 8-6.1 11.5-15.9 11.6-4.1.1-4.8-.2-4.3-1.7.2-.9 1.3-5.9 2.2-11l1.7-9.2h5.4c4.7 0 5.9.4 8.5 3zm-28.8 16.7c-.9 5.3-2 6-3.8 2.5-1.6-3.1-1.6-3.2 1.1-4.6 1.6-.8 2.9-1.5 3.1-1.6.2 0 0 1.7-.4 3.7zM139 396c0 1.5.5 2 1.8 1.8.9-.2 1.7-1 1.7-1.8s-.8-1.6-1.7-1.8c-1.3-.2-1.8.3-1.8 1.8zM126.2 403.7c.2 1 1.2 1.8 2.3 1.8 1.1 0 2.1-.8 2.3-1.8.3-1.3-.3-1.7-2.3-1.7-2 0-2.6.4-2.3 1.7zM99.3 423.2c-3.2 2.9-8.2 7.5-11.2 10.3-11 10-14.7 14.1-26.1 29C21 516.1 2.7 566 .4 630.5c-.9 25.8.5 40.6 6.5 70 1.6 7.7 3.2 15.7 3.6 17.7.4 3 1.1 3.8 2.6 3.8 2.5 0 2.5.3-3.2-28.4-5.3-26.1-5.8-32.6-5.4-61.1.3-20.8.6-25.9 2.9-38 8.7-46.3 23-80.9 47.8-115.8 16.7-23.5 25.4-33.4 43.8-49.5 4.7-4.1 8.5-8.1 8.5-9 0-3.1-2.6-2.2-8.2 3zM477 428c0 1.7 16.4 17 18.3 17 3.1 0 1.8-2.3-6.1-10.2-5-5-8.6-7.8-10-7.8-1.2 0-2.2.4-2.2 1z"/><path d="M503 453.8c0 .9 3.2 5.7 7 10.5 15.6 19.3 31.2 45.8 39.4 66.7 10.9 28.1 12.9 34.2 15.6 48 4.9 24.5 6.3 38.3 6.4 63.5 0 40.7-5.1 65.1-22.9 108.1-12.1 29.3-21.7 45-44.6 72.5-15.4 18.6-30.4 31.4-62.9 54.1-9.8 6.8-13.3 10.8-9.6 10.8 1.7 0 30.5-19.9 44.1-30.5 13.6-10.6 37.2-36.9 51.8-57.8 15.4-21.9 32.6-60.9 40.1-90.5 7.4-29.1 10.3-64.9 7.6-92.3-.6-5.7-2.5-19-4.1-29.4-2.9-17.8-3.6-20.4-11-40.4-4.4-11.8-10.2-26.2-13-31.9-9-19.3-22.1-39.7-37.8-59-3.6-4.4-6.1-5.4-6.1-2.4zM17 736c0 5.1 18.9 45.4 21.8 46.5 3.5 1.3 2.4-2.3-4.9-16.9-4.2-8.4-9-18.9-10.7-23.2-3-7.7-6.2-11.1-6.2-6.4zM52.6 802.8c-1.5 2.4 13.2 21.1 28.8 36.8 10.8 10.8 36.1 31.6 50.1 41.4 11.7 8 42.5 23 58 28.2 25.5 8.6 44.8 13 66.5 15.3 15.5 1.7 38 2 38 .5 0-1.9-4-3-10.7-3-10.2 0-32.6-1.9-42.8-3.6-24.8-4.2-60.2-15.7-80.5-26.1-8-4.1-16.1-8.4-18-9.6-3.7-2.2-27.8-19.8-32-23.4-1.4-1.1-6.1-5.1-10.5-8.8C83.9 837.4 68.6 821 60 808.4c-4.2-6.1-6.1-7.6-7.4-5.6zM384.5 905.4c-7.6 2.8-29.1 9-37 10.8-4.1.9-6 1.8-6 2.8 0 2.4 8.1 1.5 22-2.5 22.7-6.5 32.3-10.4 31-12.5-.9-1.4-3.2-1.1-10 1.4z"/></svg>